<svg width="36" height="35" viewBox="0 0 36 35" fill="none" xmlns="http://www.w3.org/2000/svg">
<path d="M35.5 17.5C35.5 27.165 27.665 35 18 35C8.33499 35 0.5 27.165 0.5 17.5C0.5 7.83499 8.33499 0 18 0C27.665 0 35.5 7.83499 35.5 17.5ZM15.9758 26.7661L28.9597 13.7822C29.4005 13.3414 29.4005 12.6265 28.9597 12.1856L27.363 10.5889C26.9221 10.148 26.2072 10.148 25.7663 10.5889L15.1774 21.1777L10.2337 16.234C9.79285 15.7931 9.07796 15.7931 8.63701 16.234L7.04034 17.8307C6.59946 18.2716 6.59946 18.9864 7.04034 19.4273L14.3791 26.766C14.82 27.207 15.5348 27.207 15.9758 26.7661Z" fill="#70C68C"/>
</svg>
