<svg width="39" height="39" viewBox="0 0 39 39" fill="none" xmlns="http://www.w3.org/2000/svg">
<path d="M12 10.0928C11.5027 10.0928 11.0258 10.2903 10.6742 10.6419C10.3225 10.9936 10.125 11.4705 10.125 11.9678C10.125 12.4651 10.3225 12.942 10.6742 13.2936C11.0258 13.6452 11.5027 13.8428 12 13.8428H27C27.4973 13.8428 27.9742 13.6452 28.3258 13.2936C28.6775 12.942 28.875 12.4651 28.875 11.9678C28.875 11.4705 28.6775 10.9936 28.3258 10.6419C27.9742 10.2903 27.4973 10.0928 27 10.0928H12ZM10.125 19.4996C10.125 19.0024 10.3225 18.5255 10.6742 18.1738C11.0258 17.8222 11.5027 17.6246 12 17.6246H27C27.4973 17.6246 27.9742 17.8222 28.3258 18.1738C28.6775 18.5255 28.875 19.0024 28.875 19.4996C28.875 19.9969 28.6775 20.4738 28.3258 20.8255C27.9742 21.1771 27.4973 21.3746 27 21.3746H12C11.5027 21.3746 11.0258 21.1771 10.6742 20.8255C10.3225 20.4738 10.125 19.9969 10.125 19.4996ZM12 25.1565C11.5027 25.1565 11.0258 25.3541 10.6742 25.7057C10.3225 26.0573 10.125 26.5342 10.125 27.0315C10.125 27.5288 10.3225 28.0057 10.6742 28.3573C11.0258 28.709 11.5027 28.9065 12 28.9065H27C27.4973 28.9065 27.9742 28.709 28.3258 28.3573C28.6775 28.0057 28.875 27.5288 28.875 27.0315C28.875 26.5342 28.6775 26.0573 28.3258 25.7057C27.9742 25.3541 27.4973 25.1565 27 25.1565H12Z" fill="#0264D3"/>
<path fill-rule="evenodd" clip-rule="evenodd" d="M38.25 19.5C38.25 29.8556 29.8556 38.25 19.5 38.25C9.14437 38.25 0.75 29.8556 0.75 19.5C0.75 9.14437 9.14437 0.75 19.5 0.75C29.8556 0.75 38.25 9.14437 38.25 19.5ZM34.5 19.5C34.5 23.4782 32.9196 27.2936 30.1066 30.1066C27.2936 32.9196 23.4782 34.5 19.5 34.5C15.5218 34.5 11.7064 32.9196 8.8934 30.1066C6.08035 27.2936 4.5 23.4782 4.5 19.5C4.5 15.5218 6.08035 11.7064 8.8934 8.8934C11.7064 6.08035 15.5218 4.5 19.5 4.5C23.4782 4.5 27.2936 6.08035 30.1066 8.8934C32.9196 11.7064 34.5 15.5218 34.5 19.5Z" fill="#0264D3"/>
</svg>
