<svg width="836" height="630" viewBox="0 0 836 630" fill="none" xmlns="http://www.w3.org/2000/svg">
<path d="M4.02002 629.875H1109.02C1109.02 629.875 1088.2 522.526 1001.69 522.526C915.185 522.526 954.745 320.22 851.891 320.22C749.038 320.22 735.055 0 531.727 0C328.399 0 282.248 212.074 282.248 264.828C282.248 317.581 168.847 337.578 168.847 421.218C168.847 504.858 4.02002 440.235 4.02002 629.875Z" fill="#F9F1ED"/>
<path d="M873.183 178.507H141.459V126.402C141.459 101.495 161.646 81.3048 186.548 81.3048H828.094C852.997 81.3048 873.183 101.495 873.183 126.402V178.507Z" fill="#FC8856"/>
<path d="M855.337 629.875H159.306C149.449 629.875 141.459 621.883 141.459 612.025V153.728H873.183V612.025C873.183 621.883 865.193 629.875 855.337 629.875Z" fill="#E4EDEB"/>
<path d="M529.158 60.874V101.744C529.158 111.913 521.831 120.371 512.164 122.131C510.954 122.356 509.711 122.47 508.436 122.47H506.193C494.767 122.47 485.488 113.188 485.488 101.745V60.874C485.488 49.4296 494.768 40.1489 506.193 40.1489H508.436C509.711 40.1489 510.954 40.2617 512.164 40.4874C521.831 42.2476 529.158 50.7056 529.158 60.874Z" fill="#7070E5"/>
<path d="M529.158 60.874V101.744C529.158 111.913 521.831 120.371 512.164 122.131C502.496 120.387 495.17 111.913 495.17 101.744V60.874C495.17 50.7046 502.496 42.2307 512.164 40.4874C521.831 42.2476 529.158 50.7056 529.158 60.874Z" fill="#8B8BF2"/>
<path d="M440.912 60.874V101.744C440.912 111.913 433.569 120.387 423.902 122.131C422.692 122.356 421.449 122.47 420.19 122.47H417.947C406.505 122.47 397.242 113.188 397.242 101.745V60.874C397.242 49.4296 406.505 40.1489 417.947 40.1489H420.19C421.449 40.1489 422.692 40.2617 423.902 40.4874C433.569 42.2316 440.912 50.7056 440.912 60.874Z" fill="#D3E0DC"/>
<path d="M440.912 60.874V101.744C440.912 111.913 433.569 120.387 423.902 122.131C414.252 120.387 406.924 111.913 406.924 101.744V60.874C406.924 50.7046 414.251 42.2307 423.902 40.4874C433.569 42.2316 440.912 50.7056 440.912 60.874Z" fill="#E4EDEB"/>
<path d="M264.42 60.874V101.744C264.42 111.913 257.077 120.387 247.411 122.131C246.201 122.356 244.958 122.47 243.699 122.47H241.456C230.013 122.47 220.734 113.188 220.734 101.745V60.874C220.734 49.4296 230.014 40.1489 241.456 40.1489H243.699C244.958 40.1489 246.201 40.2617 247.411 40.4874C257.078 42.2316 264.42 50.7056 264.42 60.874Z" fill="#7070E5"/>
<path d="M264.42 60.874V101.744C264.42 111.913 257.077 120.387 247.411 122.131C237.743 120.387 230.417 111.913 230.417 101.744V60.874C230.417 50.7046 237.743 42.2307 247.411 40.4874C257.078 42.2316 264.42 50.7056 264.42 60.874Z" fill="#8B8BF2"/>
<path d="M796.267 60.874V101.744C796.267 111.913 788.94 120.387 779.273 122.131C778.079 122.356 776.836 122.47 775.562 122.47H773.318C761.876 122.47 752.597 113.188 752.597 101.745V60.874C752.597 49.4296 761.877 40.1489 773.318 40.1489H775.562C776.836 40.1489 778.079 40.2617 779.273 40.4874C788.941 42.2316 796.267 50.7056 796.267 60.874Z" fill="#7070E5"/>
<path d="M796.267 60.874V101.744C796.267 111.913 788.94 120.387 779.273 122.131C769.606 120.387 762.279 111.913 762.279 101.744V60.874C762.279 50.7046 769.606 42.2307 779.273 40.4874C788.941 42.2316 796.267 50.7056 796.267 60.874Z" fill="#8B8BF2"/>
<path d="M619.775 60.874V101.744C619.775 111.913 612.448 120.387 602.782 122.131C601.588 122.356 600.345 122.47 599.07 122.47H596.827C585.384 122.47 576.105 113.188 576.105 101.745V60.874C576.105 49.4296 585.385 40.1489 596.827 40.1489H599.07C600.345 40.1489 601.588 40.2617 602.782 40.4874C612.449 42.2316 619.775 50.7056 619.775 60.874Z" fill="#D3E0DC"/>
<path d="M619.776 60.874V101.744C619.776 111.913 612.448 120.387 602.782 122.131C593.114 120.387 585.788 111.913 585.788 101.744V60.874C585.788 50.7046 593.114 42.2307 602.782 40.4874C612.449 42.2316 619.776 50.7056 619.776 60.874Z" fill="#E4EDEB"/>
<path d="M253.473 252.558H206.494C203.153 252.558 200.444 249.849 200.444 246.507V199.52C200.444 196.178 203.153 193.469 206.494 193.469H253.473C256.814 193.469 259.522 196.178 259.522 199.52V246.507C259.522 249.849 256.814 252.558 253.473 252.558Z" fill="#D3E0DC"/>
<path d="M345.919 252.558H298.94C295.599 252.558 292.891 249.849 292.891 246.507V199.52C292.891 196.178 295.599 193.469 298.94 193.469H345.919C349.26 193.469 351.969 196.178 351.969 199.52V246.507C351.969 249.849 349.26 252.558 345.919 252.558Z" fill="#D3E0DC"/>
<path d="M438.364 252.558H391.386C388.044 252.558 385.336 249.849 385.336 246.507V199.52C385.336 196.178 388.044 193.469 391.386 193.469H438.364C441.705 193.469 444.414 196.178 444.414 199.52V246.507C444.414 249.849 441.705 252.558 438.364 252.558Z" fill="#D3E0DC"/>
<path d="M530.811 252.558H483.832C480.491 252.558 477.782 249.849 477.782 246.507V199.52C477.782 196.178 480.491 193.469 483.832 193.469H530.811C534.152 193.469 536.86 196.178 536.86 199.52V246.507C536.86 249.849 534.152 252.558 530.811 252.558Z" fill="#D3E0DC"/>
<path d="M623.256 252.558H576.277C572.936 252.558 570.228 249.849 570.228 246.507V199.52C570.228 196.178 572.936 193.469 576.277 193.469H623.256C626.597 193.469 629.306 196.178 629.306 199.52V246.507C629.306 249.849 626.597 252.558 623.256 252.558Z" fill="#D3E0DC"/>
<path d="M715.701 252.558H668.723C665.381 252.558 662.673 249.849 662.673 246.507V199.52C662.673 196.178 665.381 193.469 668.723 193.469H715.701C719.042 193.469 721.751 196.178 721.751 199.52V246.507C721.752 249.849 719.042 252.558 715.701 252.558Z" fill="#FC8856"/>
<path d="M808.147 252.558H761.169C757.828 252.558 755.119 249.849 755.119 246.507V199.52C755.119 196.178 757.828 193.469 761.169 193.469H808.147C811.489 193.469 814.197 196.178 814.197 199.52V246.507C814.197 249.849 811.489 252.558 808.147 252.558Z" fill="#FC8856"/>
<path d="M253.473 336.888H206.494C203.153 336.888 200.444 334.179 200.444 330.837V283.851C200.444 280.509 203.153 277.8 206.494 277.8H253.473C256.814 277.8 259.522 280.509 259.522 283.851V330.837C259.522 334.179 256.814 336.888 253.473 336.888Z" fill="#D3E0DC"/>
<path d="M345.919 336.888H298.94C295.599 336.888 292.891 334.179 292.891 330.837V283.851C292.891 280.509 295.599 277.8 298.94 277.8H345.919C349.26 277.8 351.969 280.509 351.969 283.851V330.837C351.969 334.179 349.26 336.888 345.919 336.888Z" fill="#D3E0DC"/>
<path d="M438.364 336.888H391.386C388.044 336.888 385.336 334.179 385.336 330.837V283.851C385.336 280.509 388.044 277.8 391.386 277.8H438.364C441.705 277.8 444.414 280.509 444.414 283.851V330.837C444.414 334.179 441.705 336.888 438.364 336.888Z" fill="#D3E0DC"/>
<path d="M530.811 336.888H483.832C480.491 336.888 477.782 334.179 477.782 330.837V283.851C477.782 280.509 480.491 277.8 483.832 277.8H530.811C534.152 277.8 536.86 280.509 536.86 283.851V330.837C536.86 334.179 534.152 336.888 530.811 336.888Z" fill="#D3E0DC"/>
<path d="M623.256 336.888H576.277C572.936 336.888 570.228 334.179 570.228 330.837V283.851C570.228 280.509 572.936 277.8 576.277 277.8H623.256C626.597 277.8 629.306 280.509 629.306 283.851V330.837C629.306 334.179 626.597 336.888 623.256 336.888Z" fill="#D3E0DC"/>
<path d="M715.701 336.888H668.723C665.381 336.888 662.673 334.179 662.673 330.837V283.851C662.673 280.509 665.381 277.8 668.723 277.8H715.701C719.042 277.8 721.751 280.509 721.751 283.851V330.837C721.752 334.179 719.042 336.888 715.701 336.888Z" fill="#FC8856"/>
<path d="M808.147 336.888H761.169C757.828 336.888 755.119 334.179 755.119 330.837V283.851C755.119 280.509 757.828 277.8 761.169 277.8H808.147C811.489 277.8 814.197 280.509 814.197 283.851V330.837C814.197 334.179 811.489 336.888 808.147 336.888Z" fill="#FC8856"/>
<path d="M253.473 421.218H206.494C203.153 421.218 200.444 418.509 200.444 415.167V368.18C200.444 364.839 203.153 362.13 206.494 362.13H253.473C256.814 362.13 259.522 364.839 259.522 368.18V415.167C259.522 418.509 256.814 421.218 253.473 421.218Z" fill="#D3E0DC"/>
<path d="M345.919 421.218H298.94C295.599 421.218 292.891 418.509 292.891 415.167V368.18C292.891 364.839 295.599 362.13 298.94 362.13H345.919C349.26 362.13 351.969 364.839 351.969 368.18V415.167C351.969 418.509 349.26 421.218 345.919 421.218Z" fill="#D3E0DC"/>
<path d="M438.364 421.218H391.386C388.044 421.218 385.336 418.509 385.336 415.167V368.18C385.336 364.839 388.044 362.13 391.386 362.13H438.364C441.705 362.13 444.414 364.839 444.414 368.18V415.167C444.414 418.509 441.705 421.218 438.364 421.218Z" fill="#D3E0DC"/>
<path d="M530.811 421.218H483.832C480.491 421.218 477.782 418.509 477.782 415.167V368.18C477.782 364.839 480.491 362.13 483.832 362.13H530.811C534.152 362.13 536.86 364.839 536.86 368.18V415.167C536.86 418.509 534.152 421.218 530.811 421.218Z" fill="#D3E0DC"/>
<path d="M623.256 421.218H576.277C572.936 421.218 570.228 418.509 570.228 415.167V368.18C570.228 364.839 572.936 362.13 576.277 362.13H623.256C626.597 362.13 629.306 364.839 629.306 368.18V415.167C629.306 418.509 626.597 421.218 623.256 421.218Z" fill="#D3E0DC"/>
<path d="M715.701 421.218H668.723C665.381 421.218 662.673 418.509 662.673 415.167V368.18C662.673 364.839 665.381 362.13 668.723 362.13H715.701C719.042 362.13 721.751 364.839 721.751 368.18V415.167C721.752 418.509 719.042 421.218 715.701 421.218Z" fill="#FC8856"/>
<path d="M808.147 421.218H761.169C757.828 421.218 755.119 418.509 755.119 415.167V368.18C755.119 364.839 757.828 362.13 761.169 362.13H808.147C811.489 362.13 814.197 364.839 814.197 368.18V415.167C814.197 418.509 811.489 421.218 808.147 421.218Z" fill="#FC8856"/>
<path d="M253.473 505.549H206.494C203.153 505.549 200.444 502.84 200.444 499.498V452.511C200.444 449.169 203.153 446.46 206.494 446.46H253.473C256.814 446.46 259.522 449.169 259.522 452.511V499.498C259.522 502.84 256.814 505.549 253.473 505.549Z" fill="#D3E0DC"/>
<path d="M345.919 505.549H298.94C295.599 505.549 292.891 502.84 292.891 499.498V452.511C292.891 449.169 295.599 446.46 298.94 446.46H345.919C349.26 446.46 351.969 449.169 351.969 452.511V499.498C351.969 502.84 349.26 505.549 345.919 505.549Z" fill="#D3E0DC"/>
<path d="M438.364 505.549H391.386C388.044 505.549 385.336 502.84 385.336 499.498V452.511C385.336 449.169 388.044 446.46 391.386 446.46H438.364C441.705 446.46 444.414 449.169 444.414 452.511V499.498C444.414 502.84 441.705 505.549 438.364 505.549Z" fill="#D3E0DC"/>
<path d="M530.811 505.549H483.832C480.491 505.549 477.782 502.84 477.782 499.498V452.511C477.782 449.169 480.491 446.46 483.832 446.46H530.811C534.152 446.46 536.86 449.169 536.86 452.511V499.498C536.86 502.84 534.152 505.549 530.811 505.549Z" fill="#D3E0DC"/>
<path d="M623.256 505.549H576.277C572.936 505.549 570.228 502.84 570.228 499.498V452.511C570.228 449.169 572.936 446.46 576.277 446.46H623.256C626.597 446.46 629.306 449.169 629.306 452.511V499.498C629.306 502.84 626.597 505.549 623.256 505.549Z" fill="#D3E0DC"/>
<path d="M715.701 505.549H668.723C665.381 505.549 662.673 502.84 662.673 499.498V452.511C662.673 449.169 665.381 446.46 668.723 446.46H715.701C719.042 446.46 721.751 449.169 721.751 452.511V499.498C721.752 502.84 719.042 505.549 715.701 505.549Z" fill="#FC8856"/>
<path d="M808.147 505.549H761.169C757.828 505.549 755.119 502.84 755.119 499.498V452.511C755.119 449.169 757.828 446.46 761.169 446.46H808.147C811.489 446.46 814.197 449.169 814.197 452.511V499.498C814.197 502.84 811.489 505.549 808.147 505.549Z" fill="#FC8856"/>
<path d="M339.639 605.755H212.774C205.965 605.755 200.444 600.234 200.444 593.423V561.36C200.444 554.549 205.965 549.028 212.774 549.028H339.639C346.448 549.028 351.969 554.549 351.969 561.36V593.423C351.969 600.234 346.448 605.755 339.639 605.755Z" fill="#FC8856"/>
<path d="M842.35 138.977L731.008 276.409C730.367 277.201 731.411 278.243 732.201 277.6L869.379 166.005C870.496 165.097 870.583 163.42 869.565 162.402L845.955 138.788C844.935 137.769 843.257 137.856 842.35 138.977Z" fill="#F2F9F7"/>
<path d="M856.141 224.516L851.396 229.262C844.958 235.702 834.531 235.702 828.108 229.262L779.354 180.499C778.757 179.902 778.208 179.256 777.724 178.594L777.692 178.546C772.979 172.106 773.528 163.034 779.354 157.207L784.099 152.461L843.392 211.765L856.141 224.516Z" fill="#5555E0"/>
<path d="M951.36 105.99L856.141 224.516L843.392 211.764L784.099 152.461L784.244 152.331L902.604 57.2266L938.625 93.2541L951.36 105.99Z" fill="#7070E5"/>
<path d="M843.521 211.619L843.392 211.764L838.776 216.364C832.353 222.804 821.927 222.804 815.504 216.364L777.724 178.593L777.692 178.545C772.979 172.105 773.528 163.033 779.354 157.206L784.099 152.46L784.245 152.331L843.521 211.619Z" fill="#6F6FEF"/>
<path d="M938.625 93.2541L843.521 211.619L784.244 152.331L902.604 57.2266L938.625 93.2541Z" fill="#8B8BF2"/>
<path d="M540.37 555.629H385.336C384.445 555.629 383.722 554.907 383.722 554.014C383.722 553.122 384.445 552.4 385.336 552.4H540.37C541.262 552.4 541.984 553.122 541.984 554.014C541.984 554.907 541.262 555.629 540.37 555.629Z" fill="#BAD1CD"/>
<path d="M540.37 577.392H385.336C384.445 577.392 383.722 576.67 383.722 575.778C383.722 574.885 384.445 574.163 385.336 574.163H540.37C541.262 574.163 541.984 574.885 541.984 575.778C541.983 576.67 541.262 577.392 540.37 577.392Z" fill="#BAD1CD"/>
<path d="M540.37 599.155H385.336C384.445 599.155 383.722 598.433 383.722 597.541C383.722 596.649 384.445 595.926 385.336 595.926H540.37C541.262 595.926 541.984 596.649 541.984 597.541C541.984 598.433 541.262 599.155 540.37 599.155Z" fill="#BAD1CD"/>
<path d="M797.327 624.51H845.696C850.892 624.51 855.875 622.445 859.55 618.77L861.253 617.067C864.927 613.392 866.991 608.408 866.991 603.21V568.015L857.577 610.52L846.413 620.205L797.327 624.51Z" fill="#D3E0DC"/>
</svg>
